<?xml version="1.0" encoding="UTF-8" standalone="no"?>
<!DOCTYPE svg PUBLIC "-//W3C//DTD SVG 1.1//EN" "http://www.w3.org/Graphics/SVG/1.1/DTD/svg11.dtd">
<svg width="100%" height="100%" viewBox="0 0 1444 1122" version="1.1" xmlns="http://www.w3.org/2000/svg" xmlns:xlink="http://www.w3.org/1999/xlink" xml:space="preserve" xmlns:serif="http://www.serif.com/" style="fill-rule:evenodd;clip-rule:evenodd;stroke-miterlimit:10;">
    <g transform="matrix(1,0,0,1,-483.986,-793.838)">
        <g id="Layer-1" serif:id="Layer 1" transform="matrix(4.16667,0,0,4.16667,0,0)">
            <g transform="matrix(1,0,0,1,226.618,444.971)">
                <path d="M0,-239.781L-102.829,-183.025L-110.461,-174.333L-110.461,-156.583L-104.622,-138.925L-95.602,-125.239L-81.682,-115.17L-67.718,-115.17L-48.763,-143.759L-18,-194.564L-9.314,-195.812L-4.097,-186.749L-2.193,-168.816L0.263,-101.101L0.263,-76.833L3.532,-65.594L12.616,-59.666L59.524,-87.046L77.532,-38.833L84.578,-21.083L92.782,-13.554L123.063,-31.337L127.061,2.061L134.552,14.669L141.488,11.151L235.914,-44.496L229.616,-50.498L226.581,-71.366L222.758,-102.055L217.418,-116.119L210.051,-121.52L175.121,-102.961L151.1,-172.522L131.382,-225.769L125.02,-232.159L115.723,-228.191L96.744,-217.706L96.081,-236.005L90.67,-251.334L84.596,-254.45L24.387,-220.769L16.791,-230.688L8.531,-238.141L0,-239.781Z" style="fill:white;fill-rule:nonzero;"/>
            </g>
            <g transform="matrix(1,0,0,1,235.148,243.997)">
                <path d="M0,138.428C-6.796,134.504 -7.344,125.543 -7.484,121.465L-11.095,21.921C-11.095,21.921 -11.859,10.672 -17.845,5.162C-23.453,0 -27.141,7.331 -29.347,10.372C-41.07,26.532 -65.656,74.283 -72.225,80.903C-76.861,85.574 -81.334,87.119 -85.144,87.086C-89.784,87.045 -97.079,82.075 -97.079,82.075" style="fill:none;fill-rule:nonzero;stroke:rgb(3,4,5);stroke-width:0.12px;"/>
            </g>
            <g transform="matrix(-0.872039,0.489437,0.489437,0.872039,232.327,266.459)">
                <path d="M-105.995,-27.712L7.245,-27.712" style="fill:none;fill-rule:nonzero;stroke:rgb(3,4,5);stroke-width:2px;stroke-linecap:round;"/>
            </g>
            <g transform="matrix(0.647446,0.762111,0.762111,-0.647446,245.643,204.899)">
                <path d="M-3.891,-8.411C2.687,-6.062 9.834,-6.523 18.182,-8.411" style="fill:none;fill-rule:nonzero;stroke:rgb(3,4,5);stroke-width:0.12px;"/>
            </g>
            <g transform="matrix(1,0,0,1,138.07,257.345)">
                <path d="M0,68.728C-12.059,60.402 -21.914,41.368 -21.914,25.206C-21.914,9.045 -12.102,0 0,6.987C6.048,10.479 10.325,16.224 14.29,23.809" style="fill:none;fill-rule:nonzero;stroke:rgb(3,4,5);stroke-width:0.12px;"/>
            </g>
            <g transform="matrix(-0.873078,0.487581,0.487581,0.873078,162.538,292.982)">
                <path d="M-54.696,-14.238L3.706,-14.238" style="fill:none;fill-rule:nonzero;stroke:rgb(3,4,5);stroke-width:2px;"/>
            </g>
            <g transform="matrix(1,0,0,1,235.148,335.282)">
                <path d="M0,47.143C6.796,51.067 7.424,42.789 7.484,38.823C7.84,14.705 11.094,-56.552 11.094,-56.552C11.094,-56.552 11.858,-66.92 17.845,-65.517C23.452,-64.205 27.14,-52.615 29.348,-47.025C41.069,-17.33 58.154,40.055 72.225,74.623C75.55,82.789 78.892,92.692 84.439,94.448C89.475,96.041 90.983,83.676 93.452,67.188C95.437,53.948 98.567,41.666 105.489,46.002C114.399,51.582 116.09,64.721 117.825,80.858C121.399,114.063 121.399,110.848 121.399,110.848" style="fill:none;fill-rule:nonzero;stroke:rgb(3,4,5);stroke-width:0.12px;"/>
            </g>
            <g transform="matrix(-0.864346,0.502898,0.502898,0.864346,250.844,394.473)">
                <path d="M-51.304,-13.839L3.733,-13.839" style="fill:none;fill-rule:nonzero;stroke:rgb(3,4,5);stroke-width:2px;stroke-linecap:round;"/>
            </g>
            <g transform="matrix(-0.875293,0.483592,0.483592,0.875293,268.744,288.574)">
                <path d="M-105.671,-27.25L7.027,-27.25" style="fill:none;fill-rule:nonzero;stroke:rgb(3,4,5);stroke-width:2px;stroke-linecap:round;"/>
            </g>
            <g transform="matrix(-0.866025,0.500001,0.500001,0.866025,328.408,437.926)">
                <path d="M-33.183,-8.891L2.382,-8.891" style="fill:none;fill-rule:nonzero;stroke:rgb(3,4,5);stroke-width:2px;"/>
            </g>
            <g transform="matrix(0.632446,0.774605,0.774605,-0.632446,363.287,445.241)">
                <path d="M-3.574,-5.783C3.862,-9.476 11.065,-8.905 10.045,-5.783" style="fill:none;fill-rule:nonzero;stroke:rgb(3,4,5);stroke-width:0.12px;"/>
            </g>
            <g transform="matrix(-0.861526,0.507714,0.507714,0.861526,388.032,476.998)">
                <path d="M-103.036,-28.102L7.665,-28.102" style="fill:none;fill-rule:nonzero;stroke:rgb(3,4,5);stroke-width:2px;stroke-linecap:round;"/>
            </g>
            <g transform="matrix(1,0,0,1,222.52,221.626)">
                <path d="M0,-14.796C3.824,-17.29 8.779,-17.372 14.193,-14.247C20.242,-10.755 24.519,-5.01 28.484,2.576" style="fill:none;fill-rule:nonzero;stroke:rgb(3,4,5);stroke-width:2px;stroke-linecap:round;"/>
            </g>
            <g transform="matrix(1,0,0,1,311.214,226.941)">
                <path d="M0,-36.42C1.397,-36.745 2.971,-36.357 4.734,-34.734C10.72,-29.223 11.484,-17.975 11.484,-17.975L12.148,0.325" style="fill:none;fill-rule:nonzero;stroke:rgb(3,4,5);stroke-width:2px;"/>
            </g>
            <g transform="matrix(-0.922554,0.385867,0.385867,0.922554,476.391,392.502)">
                <path d="M10,-79.036C9.262,-78.709 8.569,-78.114 7.932,-77.209C1.865,-68.624 5.373,-55.851 10,-40.295C19.516,-8.282 18.275,-11.248 18.275,-11.248C19.436,-4.58 17.924,1.134 15.863,2.007" style="fill:none;fill-rule:nonzero;stroke:rgb(3,4,5);stroke-width:2px;stroke-linecap:round;"/>
            </g>
            <g transform="matrix(1,0,0,1,348.058,341.756)">
                <path d="M0,-128.134C0.913,-128.909 2.083,-129.294 3.579,-128.944C9.187,-127.631 12.874,-116.041 15.083,-110.451C25.729,-83.477 40.804,-33.654 54.022,1.16" style="fill:none;fill-rule:nonzero;stroke:rgb(3,4,5);stroke-width:2px;stroke-linecap:round;"/>
            </g>
            <g transform="matrix(1,0,0,1,363.902,244.141)">
                <path d="M0,216.286C-0.272,216.286 -0.55,216.263 -0.831,216.213C-5.126,215.461 -8.782,208.985 -10.224,202.891C-10.337,202.564 -10.431,202.19 -10.499,201.765C-10.626,200.971 -10.806,199.653 -11.03,197.851C-11.657,192.847 -12.626,184.257 -13.911,172.319C-15.706,155.623 -17.438,144.331 -24.856,139.685C-25.767,139.115 -26.093,139.265 -26.199,139.314C-27.239,139.793 -29.917,142.646 -32.335,158.772L-32.758,161.616C-35.121,177.528 -36.441,185.293 -40.606,187.895C-42.005,188.769 -43.601,188.961 -45.219,188.448C-51.512,186.456 -54.919,177.896 -58.214,169.619C-58.581,168.699 -58.944,167.787 -59.307,166.895C-66.973,148.063 -75.417,122.824 -83.584,98.415C-90.411,78.011 -96.859,58.737 -102.196,45.217C-102.465,44.536 -102.756,43.767 -103.069,42.939C-104.738,38.523 -108.213,29.335 -111.592,28.544C-112.098,28.427 -112.294,28.529 -112.466,28.655C-113.657,29.526 -114.51,32.792 -114.668,34.815C-114.695,35.436 -117.918,106.214 -118.271,130.007C-118.329,133.935 -118.842,139.404 -122.599,141.536C-124.099,142.387 -126.645,142.965 -130.253,140.881C-138.736,135.984 -139.112,125.024 -139.236,121.423L-142.846,21.886C-142.848,21.884 -143.613,11.844 -148.63,7.224C-149.068,6.822 -149.899,6.136 -150.534,6.233C-151.896,6.394 -153.755,9.165 -154.754,10.653C-155.083,11.144 -155.39,11.599 -155.673,11.99C-161.278,19.717 -169.87,34.781 -178.178,49.35C-187.31,65.361 -195.196,79.189 -198.849,82.871C-203.505,87.563 -208.526,89.941 -213.771,89.942C-213.822,89.942 -213.873,89.941 -213.923,89.941C-219.319,89.893 -226.698,84.972 -227.521,84.411C-240.551,75.414 -250.746,55.212 -250.746,38.408C-250.746,28.35 -247.097,20.239 -240.986,16.711C-236.108,13.894 -230.194,14.208 -224.333,17.593C-218.367,21.035 -213.603,26.597 -208.883,35.623C-208.116,37.091 -208.684,38.903 -210.152,39.671C-211.619,40.44 -213.433,39.87 -214.201,38.402C-218.361,30.444 -222.411,25.629 -227.332,22.789C-230.111,21.184 -234.213,19.727 -237.986,21.907C-242.219,24.35 -244.746,30.519 -244.746,38.408C-244.746,53.196 -235.497,71.613 -224.128,79.463C-221.608,81.175 -216.576,83.918 -213.871,83.941C-213.839,83.941 -213.807,83.942 -213.776,83.942C-210.185,83.942 -206.597,82.16 -203.108,78.644C-200.015,75.527 -191.563,60.709 -183.39,46.378C-175.002,31.669 -166.328,16.46 -160.529,8.466C-160.284,8.128 -160.021,7.734 -159.736,7.31C-157.986,4.702 -155.342,0.761 -151.239,0.274C-148.933,0 -146.691,0.854 -144.567,2.81C-137.779,9.059 -136.89,21.065 -136.855,21.574L-133.24,121.212C-133.074,126.04 -132.273,132.787 -127.253,135.685C-126.221,136.281 -125.655,136.336 -125.538,136.308C-125.546,136.308 -124.352,135.417 -124.27,129.918C-123.917,106.033 -120.689,35.164 -120.657,34.451C-120.559,33.106 -119.898,26.67 -116.021,23.821C-114.349,22.593 -112.345,22.205 -110.225,22.702C-103.731,24.222 -100.105,33.813 -97.457,40.817C-97.155,41.615 -96.875,42.356 -96.616,43.013C-91.22,56.682 -84.747,76.029 -77.894,96.512C-69.757,120.831 -61.343,145.978 -53.75,164.633C-53.381,165.538 -53.012,166.465 -52.64,167.4C-50.169,173.606 -47.106,181.302 -43.608,182.657C-41.663,180.734 -40.02,169.674 -38.693,160.735L-38.268,157.884C-36.025,142.915 -33.255,135.956 -28.707,133.863C-27.167,133.154 -24.696,132.705 -21.672,134.6C-11.229,141.14 -9.634,155.973 -7.945,171.678C-5.775,191.839 -4.952,198.302 -4.646,200.369L-4.429,201.323C-3.374,205.957 -1.374,208.889 -0.234,209.936C0.705,209.396 1.902,209.389 2.878,210.014C4.272,210.908 4.679,212.764 3.784,214.158C2.907,215.526 1.53,216.286 0,216.286" style="fill:rgb(3,4,5);fill-rule:nonzero;"/>
            </g>
            <g transform="matrix(1,0,0,1,363.902,244.141)">
                <path d="M0,216.286C-0.272,216.286 -0.55,216.263 -0.831,216.213C-5.126,215.461 -8.782,208.985 -10.224,202.891C-10.337,202.564 -10.431,202.19 -10.499,201.765C-10.626,200.971 -10.806,199.653 -11.03,197.851C-11.657,192.847 -12.626,184.257 -13.911,172.319C-15.706,155.623 -17.438,144.331 -24.856,139.685C-25.767,139.115 -26.093,139.265 -26.199,139.314C-27.239,139.793 -29.917,142.646 -32.335,158.772L-32.758,161.616C-35.121,177.528 -36.441,185.293 -40.606,187.895C-42.005,188.769 -43.601,188.961 -45.219,188.448C-51.512,186.456 -54.919,177.896 -58.214,169.619C-58.581,168.699 -58.944,167.787 -59.307,166.895C-66.973,148.063 -75.417,122.824 -83.584,98.415C-90.411,78.011 -96.859,58.737 -102.196,45.217C-102.465,44.536 -102.756,43.767 -103.069,42.939C-104.738,38.523 -108.213,29.335 -111.592,28.544C-112.098,28.427 -112.294,28.529 -112.466,28.655C-113.657,29.526 -114.51,32.792 -114.668,34.815C-114.695,35.436 -117.918,106.214 -118.271,130.007C-118.329,133.935 -118.842,139.404 -122.599,141.536C-124.099,142.387 -126.645,142.965 -130.253,140.881C-138.736,135.984 -139.112,125.024 -139.236,121.423L-142.846,21.886C-142.848,21.884 -143.613,11.844 -148.63,7.224C-149.068,6.822 -149.899,6.136 -150.534,6.233C-151.896,6.394 -153.755,9.165 -154.754,10.653C-155.083,11.144 -155.39,11.599 -155.673,11.99C-161.278,19.717 -169.87,34.781 -178.178,49.35C-187.31,65.361 -195.196,79.189 -198.849,82.871C-203.505,87.563 -208.526,89.941 -213.771,89.942C-213.822,89.942 -213.873,89.941 -213.923,89.941C-219.319,89.893 -226.698,84.972 -227.521,84.411C-240.551,75.414 -250.746,55.212 -250.746,38.408C-250.746,28.35 -247.097,20.239 -240.986,16.711C-236.108,13.894 -230.194,14.208 -224.333,17.593C-218.367,21.035 -213.603,26.597 -208.883,35.623C-208.116,37.091 -208.684,38.903 -210.152,39.671C-211.619,40.44 -213.433,39.87 -214.201,38.402C-218.361,30.444 -222.411,25.629 -227.332,22.789C-230.111,21.184 -234.213,19.727 -237.986,21.907C-242.219,24.35 -244.746,30.519 -244.746,38.408C-244.746,53.196 -235.497,71.613 -224.128,79.463C-221.608,81.175 -216.576,83.918 -213.871,83.941C-213.839,83.941 -213.807,83.942 -213.776,83.942C-210.185,83.942 -206.597,82.16 -203.108,78.644C-200.015,75.527 -191.563,60.709 -183.39,46.378C-175.002,31.669 -166.328,16.46 -160.529,8.466C-160.284,8.128 -160.021,7.734 -159.736,7.31C-157.986,4.702 -155.342,0.761 -151.239,0.274C-148.933,0 -146.691,0.854 -144.567,2.81C-137.779,9.059 -136.89,21.065 -136.855,21.574L-133.24,121.212C-133.074,126.04 -132.273,132.787 -127.253,135.685C-126.221,136.281 -125.655,136.336 -125.538,136.308C-125.546,136.308 -124.352,135.417 -124.27,129.918C-123.917,106.033 -120.689,35.164 -120.657,34.451C-120.559,33.106 -119.898,26.67 -116.021,23.821C-114.349,22.593 -112.345,22.205 -110.225,22.702C-103.731,24.222 -100.105,33.813 -97.457,40.817C-97.155,41.615 -96.875,42.356 -96.616,43.013C-91.22,56.682 -84.747,76.029 -77.894,96.512C-69.757,120.831 -61.343,145.978 -53.75,164.633C-53.381,165.538 -53.012,166.465 -52.64,167.4C-50.169,173.606 -47.106,181.302 -43.608,182.657C-41.663,180.734 -40.02,169.674 -38.693,160.735L-38.268,157.884C-36.025,142.915 -33.255,135.956 -28.707,133.863C-27.167,133.154 -24.696,132.705 -21.672,134.6C-11.229,141.14 -9.634,155.973 -7.945,171.678C-5.775,191.839 -4.952,198.302 -4.646,200.369L-4.429,201.323C-3.374,205.957 -1.374,208.889 -0.234,209.936C0.705,209.396 1.902,209.389 2.878,210.014C4.272,210.908 4.679,212.764 3.784,214.158C2.907,215.526 1.53,216.286 0,216.286Z" style="fill:none;fill-rule:nonzero;stroke:rgb(3,4,4);stroke-width:2px;"/>
            </g>
            <g transform="matrix(0.873162,-0.48743,-0.48743,-0.873162,142.048,283.887)">
                <path d="M-7.301,28.058L107.825,28.058" style="fill:none;fill-rule:nonzero;stroke:rgb(3,4,5);stroke-width:2px;stroke-linecap:round;"/>
            </g>
            <g transform="matrix(-0.87146,0.490467,0.490467,0.87146,357.401,400.152)">
                <path d="M-106.697,-27.963L7.328,-27.963" style="fill:none;fill-rule:nonzero;stroke:rgb(3,4,5);stroke-width:2px;"/>
            </g>
        </g>
    </g>
</svg>
